HIERARCHY
ROOT Hips
{
  OFFSET -102.467 93.6631 130.069
  CHANNELS 6 Xposition Yposition Zposition Zrotation Xrotation Yrotation
  JOINT LeftUpLeg
  {
    OFFSET 8.64259 1.95398 -2.38835
    CHANNELS 3 Zrotation Xrotation Yrotation
    JOINT LeftLeg
    {
      OFFSET 43.7702 0 0
      CHANNELS 3 Zrotation Xrotation Yrotation
      JOINT LeftFoot
      {
        OFFSET 40.6238 0 0
        CHANNELS 3 Zrotation Xrotation Yrotation
        JOINT LeftToeBase
        {
          OFFSET 12.7242 0 0
          CHANNELS 3 Zrotation Xrotation Yrotation
          End Site
          {
            OFFSET 0 0 0
          }
        }
      }
    }
  }
  JOINT RightUpLeg
  {
    OFFSET -8.2249 1.95398 -2.59336
    CHANNELS 3 Zrotation Xrotation Yrotation
    JOINT RightLeg
    {
      OFFSET 43.5653 0 0
      CHANNELS 3 Zrotation Xrotation Yrotation
      JOINT RightFoot
      {
        OFFSET 40.6238 0 0
        CHANNELS 3 Zrotation Xrotation Yrotation
        JOINT RightToeBase
        {
          OFFSET 12.7242 0 0
          CHANNELS 3 Zrotation Xrotation Yrotation
          End Site
          {
            OFFSET 0 0 0
          }
        }
      }
    }
  }
  JOINT Spine
  {
    OFFSET 0.165834 0.87714 6.61349
    CHANNELS 3 Zrotation Xrotation Yrotation
    JOINT Spine1
    {
      OFFSET 7.38963 1.71661e-005 0
      CHANNELS 3 Zrotation Xrotation Yrotation
      JOINT Spine2
      {
        OFFSET 11.9445 1.14441e-005 0
        CHANNELS 3 Zrotation Xrotation Yrotation
        JOINT Spine3
        {
          OFFSET 14.7254 4.19617e-005 0
          CHANNELS 3 Zrotation Xrotation Yrotation
          JOINT Spine4
          {
            OFFSET 10.9679 0 0
            CHANNELS 3 Zrotation Xrotation Yrotation
            JOINT RightShoulder
            {
              OFFSET 2.46616 -1.6653 3.69651
              CHANNELS 3 Zrotation Xrotation Yrotation
              JOINT RightArm
              {
                OFFSET 13.0012 0 0
                CHANNELS 3 Zrotation Xrotation Yrotation
                JOINT RightForeArm
                {
                  OFFSET 28.7848 1.52588e-005 0
                  CHANNELS 3 Zrotation Xrotation Yrotation
                  JOINT RightHand
                  {
                    OFFSET 26.5688 1.52588e-005 0
                    CHANNELS 3 Zrotation Xrotation Yrotation
                    End Site
                    {
                      OFFSET 0 0 0
                    }
                  }
                }
              }
            }
            JOINT LeftShoulder
            {
              OFFSET 2.38034 -1.29275 -3.7523
              CHANNELS 3 Zrotation Xrotation Yrotation
              JOINT LeftArm
              {
                OFFSET 16.3182 6.10351e-005 0
                CHANNELS 3 Zrotation Xrotation Yrotation
                JOINT LeftForeArm
                {
                  OFFSET 27.0901 0 0
                  CHANNELS 3 Zrotation Xrotation Yrotation
                  JOINT LeftHand
                  {
                    OFFSET 24.5451 1.52588e-005 0
                    CHANNELS 3 Zrotation Xrotation Yrotation
                    End Site
                    {
                      OFFSET 0 0 0
                    }
                  }
                }
              }
            }
            JOINT Neck
            {
              OFFSET 5.0226 -0.0266342 0
              CHANNELS 3 Zrotation Xrotation Yrotation
              JOINT Head
              {
                OFFSET 6.69363 2.86102e-005 0
                CHANNELS 3 Zrotation Xrotation Yrotation
                End Site
                {
                  OFFSET 0 0 0
                }
              }
            }
          }
        }
      }
    }
  }
}
MOTION
Frames:	15
Frame Time:	0.0416667
-4.34348 98.7295 -5.69326 123.554 -83.3691 123.353 -174.355 1.56781 91.3802 -13.0969 6.75798 2.31592 64.9128 2.98703 -0.288771 28.7487 0.143413 2.14798 174.47 2.97011 86.2228 -16.2051 -3.3531 -0.63734 66.7242 0.025228 5.43235 26.3624 0.449588 -0.860999 -0.261509 7.35205 -90.1942 12.1689 -0.611674 -0.319658 0.4981 -0.625146 -0.292432 -22.0375 -0.487325 -0.488711 -2.02489 -0.487325 -0.488721 100.291 -51.7626 -85.031 28.8959 -19.4724 -8.09914 -0.00351075 -8.53715 -14.4537 -10.0839 -0.55507 1.27643 -81.8491 -50.9201 90.8473 -31.2178 9.06654 -18.4872 1.95412 32.9261 -6.78874 -4.02871 -0.0812817 -5.01016 15.5812 0.753867 -3.36962 -24.5286 0.689609 5.40611 
-4.36031 98.7181 -5.74958 123.096 -83.0924 122.852 -174.432 1.4728 91.3312 -12.8759 5.18689 2.45017 65.2032 2.68015 -1.53112 27.7896 0.142011 0.500856 174.409 2.9039 86.154 -16.2529 -3.11294 -0.617723 66.6038 0.343251 5.84285 26.9762 0.209151 -1.48129 -0.281949 7.37576 -90.1781 12.1216 -0.64462 -0.284185 0.450745 -0.656507 -0.255517 -22.0851 -0.52941 -0.464788 -2.07245 -0.529415 -0.464793 100.512 -51.9016 -84.6891 28.7065 -19.8858 -8.24411 0.365987 -7.72886 -13.8833 -9.34108 -0.358836 -0.732959 -82.0473 -50.4699 90.5159 -31.2732 10.2394 -18.2029 0.39807 26.0689 -5.92599 0.19293 -0.0915634 -4.3433 11.9036 -2.17377 0.958803 -19.3404 -1.63061 -5.23804 
-4.37177 98.73 -5.77111 122.952 -83.1481 122.761 -174.406 1.4972 91.3595 -12.842 5.5237 2.42798 65.1849 2.8324 -1.17316 27.9812 0.142225 0.855165 174.56 3.02346 86.2692 -16.4173 -2.74796 -0.750799 66.6985 0.459714 6.14261 26.4318 0.384744 -1.20277 -0.294471 7.39464 -90.187 12.0837 -0.673733 -0.299188 0.41289 -0.686243 -0.271865 -22.123 -0.552691 -0.487768 -2.11033 -0.552692 -0.487771 100.431 -51.9626 -84.8114 28.5031 -19.9947 -8.46929 0.451 -7.42722 -14.0767 -9.28329 -0.443293 0.393842 -82.0041 -50.8257 90.6075 -30.8706 10.1942 -18.2156 0.386564 25.9417 -6.02553 -0.00504293 -0.0901355 -4.36364 11.7945 -2.24707 -0.543579 -18.1653 -1.78815 -2.27646 
-4.37915 98.7305 -5.84013 122.618 -83.1075 122.468 -174.447 1.49992 91.3782 -12.6936 5.67233 2.4773 64.9703 2.76579 -1.06826 28.2576 0.108883 0.792782 174.559 3.19711 86.2685 -16.6815 -2.43705 -0.738676 66.8092 0.707576 6.6311 26.119 0.451545 -1.27418 -0.311385 7.42186 -90.1866 12.0293 -0.7071 -0.29387 0.358485 -0.719395 -0.266146 -22.1775 -0.585752 -0.493871 -2.16486 -0.585756 -0.49389 100.276 -51.9629 -85.0477 28.5637 -19.8799 -8.39522 0.307507 -7.49815 -14.26 -9.13871 -0.418759 0.158211 -82.0527 -50.7361 90.5275 -30.96 10.0852 -18.1416 0.484231 25.9037 -6.05489 0.223916 -0.0910612 -4.46994 12.2628 -2.18941 0.117766 -18.7455 -1.71885 -3.50729 
-4.39037 98.7283 -5.90997 122.889 -83.2057 122.628 -174.451 1.57516 91.2928 -12.7821 5.47836 2.42066 65.2347 2.67365 -1.37056 27.5178 0.216837 1.30864 174.446 3.46941 86.0464 -16.9949 -2.40894 -0.662939 66.9385 0.941101 7.06422 25.6466 0.60058 -1.03241 -0.291568 7.46503 -90.1808 11.9431 -0.664889 -0.288674 0.272251 -0.676947 -0.259144 -22.2636 -0.547396 -0.475164 -2.25099 -0.547391 -0.475166 100.413 -51.8785 -84.8404 28.5449 -19.8947 -8.51197 0.160291 -7.92669 -14.3344 -9.35051 -0.414396 -0.0253404 -82.0507 -50.7673 90.533 -31.0156 10.1229 -18.2206 0.582489 25.8487 -6.2232 0.405764 -0.0926214 -4.58096 13.0596 -1.84609 1.78434 -20.0844 -1.4007 -6.07871 
-4.37527 98.6945 -6.04267 121.263 -83.2685 120.93 -174.501 1.84064 91.2229 -12.7215 5.41064 2.37084 65.1192 2.51511 -1.50156 27.4178 0.215268 1.08209 174.399 3.99619 85.8692 -17.4387 -2.25054 -0.602338 66.9118 1.39055 7.5593 25.7206 0.596826 -0.927207 -0.276756 7.51034 -90.1765 11.8524 -0.633329 -0.284219 0.181633 -0.645217 -0.25607 -22.3542 -0.518634 -0.461421 -2.34153 -0.518628 -0.46142 100.674 -51.6847 -84.4483 28.7083 -19.8366 -8.63306 0.0293612 -8.0435 -14.5613 -9.35664 -0.440045 0.307573 -82.3246 -50.8862 90.13 -30.9155 9.8796 -18.3596 0.93932 26.6354 -6.58878 -0.445077 -0.0942636 -5.02596 12.9014 -1.99054 0.840075 -19.2014 -1.51594 -4.82864 
-4.4101 98.667 -6.21255 116.91 -83.2751 116.648 -174.523 2.52773 91.2455 -12.8758 6.04231 2.27996 64.9441 2.65651 -0.75495 27.8143 0.149661 0.696504 174.532 4.68622 85.9591 -17.7723 -1.72564 -0.601259 66.8734 1.79607 7.96469 25.536 0.60679 -1.18957 -0.293478 7.54275 -90.1765 11.7876 -0.666586 -0.281302 0.116769 -0.678316 -0.251703 -22.4191 -0.551226 -0.468639 -2.4065 -0.551225 -0.46864 100.65 -51.7272 -84.4835 28.7429 -19.91 -8.76876 0.0679851 -7.93875 -14.596 -9.64021 -0.435568 0.0787894 -82.3758 -51.0655 90.0678 -30.6221 9.69842 -18.5445 1.11709 26.0345 -6.81699 -0.500597 -0.0956265 -4.77061 13.2108 -1.98264 1.06876 -19.46 -1.54375 -4.92134 
-4.40709 98.6644 -6.49472 114.356 -82.9748 114.264 -174.626 3.01189 91.3216 -13.0696 6.42541 2.36922 64.8621 2.63544 -0.792037 27.7101 0.172721 0.889571 174.541 4.97619 86.0736 -17.8137 -1.15615 -0.512944 66.7394 2.08602 8.35053 25.2031 0.725952 -0.899458 -0.334438 7.64253 -90.2003 11.5878 -0.759058 -0.320799 -0.0829811 -0.772436 -0.287083 -22.6191 -0.627555 -0.534106 -2.60649 -0.627546 -0.534097 100.533 -51.6454 -84.6654 28.7527 -19.8549 -8.99398 0.0285431 -7.9478 -14.7062 -9.76739 -0.434355 -0.00374727 -82.179 -51.2528 90.3771 -29.9262 9.72201 -19.1906 1.09283 26.0804 -6.95004 -0.935717 -0.0962157 -4.56227 13.715 -1.91128 1.44513 -19.3486 -1.56052 -5.06539 
-4.49695 98.6302 -6.9293 113.537 -83.2167 113.575 -174.617 3.83508 91.4544 -13.7786 6.06522 2.3564 65.0535 2.46573 -1.03156 27.3588 0.209769 0.861372 174.785 5.69742 86.2787 -18.2755 -0.956519 -0.593748 66.5575 2.32461 8.5815 25.0845 0.756131 -0.890657 -0.280298 7.77951 -90.2081 11.3138 -0.654708 -0.349142 -0.357045 -0.669446 -0.319992 -22.8927 -0.519513 -0.529774 -2.88009 -0.519512 -0.529768 100.399 -51.5329 -84.8735 28.6802 -19.8325 -9.27955 -0.394637 -8.56591 -14.8525 -8.47504 -0.349651 -0.40096 -82.6904 -51.5669 89.6388 -28.5681 9.77376 -19.6192 1.23729 24.5992 -7.85922 -1.09548 -0.096277 -4.57023 13.8795 -1.97973 2.21567 -18.3668 -1.78859 -5.74027 
-4.52092 98.7189 -7.56036 108.586 -82.9586 108.559 -174.98 4.29813 91.2356 -12.7999 6.24038 2.45534 64.1243 2.16551 -1.25778 27.1606 0.229877 0.847153 174.639 6.29551 86.1198 -17.6981 -0.883457 -0.347682 65.7858 2.45005 8.29969 25.1121 0.791834 -0.561621 -0.304276 7.97601 -90.1958 10.9209 -0.696327 -0.323498 -0.749917 -0.709886 -0.292545 -23.2858 -0.566908 -0.517815 -3.27318 -0.566907 -0.517824 100.377 -51.5629 -84.9072 28.1061 -19.5777 -9.557 -1.349 -9.09584 -16.3574 -7.26234 -0.268445 -0.925913 -83.5005 -50.7359 88.3494 -28.1272 9.23903 -19.531 2.7099 22.9535 -10.8393 -1.69803 -0.0960169 -4.90991 15.3283 -2.07006 2.56417 -17.9275 -2.06405 -5.32898 
-4.62134 98.6946 -8.55427 104.148 -82.8399 104.099 -175.4 5.6279 91.032 -13.1254 5.89598 2.57316 63.8476 1.90485 -1.63731 26.5027 0.305772 0.942834 174.854 7.5584 86.1922 -17.9213 -0.812319 -0.355367 65.1374 2.61413 7.93829 25.4579 0.679271 -0.783407 -0.286563 8.30678 -90.1903 10.2593 -0.657862 -0.321517 -1.41149 -0.67138 -0.292259 -23.9473 -0.530823 -0.504373 -3.93463 -0.53082 -0.50438 100.128 -51.2645 -85.2986 26.9959 -19.4017 -10.8424 -1.61276 -8.35843 -17.2993 -7.37211 -0.17095 -2.67791 -83.8811 -50.2625 87.726 -26.066 9.73582 -20.8435 3.75116 19.6736 -15.1237 -2.10049 -0.0957412 -4.75295 17.2424 -2.27129 2.88859 -16.1812 -2.53671 -4.78275 
-4.67924 98.6034 -10.0327 92.6998 -82.491 92.7313 -175.978 8.21593 90.7504 -13.3738 6.45431 2.52375 62.8986 1.89143 -0.905369 26.5509 0.290148 0.714635 174.893 10.0903 86.1753 -18.2484 -0.834844 0.0409598 64.2886 2.50379 7.12178 25.5909 0.698984 -0.396026 -0.243899 8.66058 -90.2321 9.55154 -0.590927 -0.415217 -2.11933 -0.608637 -0.388815 -24.6546 -0.438825 -0.573629 -4.64196 -0.438822 -0.573624 99.5752 -50.6403 -86.1784 25.145 -18.7615 -12.5971 -1.65259 -6.37318 -18.897 -8.12083 -0.0984839 -3.97703 -84.6438 -50.36 86.5866 -23.145 9.73235 -23.5163 4.15116 15.414 -18.9395 -1.98221 -0.0954734 -5.26752 19.9619 -2.36875 4.64047 -15.1585 -3.13633 -6.27435 
-4.75457 98.2526 -11.895 71.4273 -81.4621 71.5188 -177.145 13.5779 90.3074 -15.2234 5.34208 2.5438 62.4127 1.75753 -1.49026 26.1207 0.337098 0.715366 174.834 15.2986 85.933 -20.0183 -0.957883 0.846619 64.0131 1.99771 6.06668 25.4855 0.694921 -0.616993 -0.193374 8.96298 -90.2548 8.94656 -0.499262 -0.470143 -2.72437 -0.519469 -0.447724 -25.2592 -0.334897 -0.598468 -5.24659 -0.334886 -0.598454 99.093 -49.9591 -86.9642 22.763 -18.0838 -15.6269 -1.43335 -4.40037 -20.4184 -9.46619 -0.138459 -3.65578 -85.2326 -49.5976 85.5977 -20.642 10.0954 -27.041 4.80879 11.4298 -24.9098 -2.09964 -0.0953195 -6.38333 24.2361 -1.95482 6.44738 -15.8306 -3.21969 -8.94153 
-4.78403 97.5311 -13.9834 55.3784 -80.5593 56.2 -177.742 20.0267 90.7213 -20.0086 4.37692 2.45029 63.3327 1.92521 -1.82215 25.821 0.376133 0.876081 174.454 20.6463 86.2278 -22.3955 -1.84736 2.08036 63.7659 0.995075 4.91396 26.0716 0.726257 0.634052 -0.0470966 9.4248 -90.3671 8.02294 -0.254686 -0.710618 -3.64816 -0.285725 -0.698733 -26.1818 -0.0293428 -0.754297 -6.16913 -0.0293558 -0.754319 98.2979 -48.7737 -88.2947 20.5648 -15.9754 -19.433 -2.39217 -4.18876 -22.6797 -9.47539 -0.113361 -3.97688 -86.1727 -48.8687 84.059 -18.5621 9.89513 -32.215 5.75077 9.10429 -29.9791 0.130696 -0.137029 -6.5221 26.5133 -2.10188 6.81861 -12.887 -3.90047 -8.33138 
-4.75071 96.6994 -15.9147 46.2059 -80.0348 46.7839 -177.836 24.6013 90.4509 -23.5791 4.32999 1.9162 63.7341 2.19267 -0.93644 26.1253 0.330669 0.597624 173.47 25.4126 85.7703 -25.6764 -3.92734 3.19623 64.1176 -0.510496 3.3566 26.6219 0.718133 1.4763 0.0267967 10.0212 -90.3678 6.83074 -0.103753 -0.71898 -4.84041 -0.135288 -0.713724 -27.374 0.117122 -0.716922 -7.36134 0.117123 -0.716919 96.9563 -47.5251 -90.5461 17.9566 -13.6686 -24.2347 -2.41335 -2.78721 -24.917 -11.4402 -0.198919 -3.30539 -87.4685 -47.8157 81.8938 -17.011 9.24963 -37.8711 7.82052 8.91283 -35.1148 1.06079 -0.163723 -6.70904 27.694 -1.25378 7.44762 -10.9923 -3.47919 -8.95147 
